<svg width="42" height="42" viewBox="0 0 42 42" fill="none" xmlns="http://www.w3.org/2000/svg">
<circle cx="26.7273" cy="15.2727" r="15.2727" fill="url(#paint0_linear_83_449)"/>
<g filter="url(#filter0_b_83_449)">
<path d="M0.416157 14.4939C0.782219 13.7754 1.36633 13.1913 2.08476 12.8252C2.90152 12.4091 3.97071 12.4091 6.10909 12.4091H23.4818C25.6202 12.4091 26.6894 12.4091 27.5061 12.8252C28.2246 13.1913 28.8087 13.7754 29.1748 14.4939C29.5909 15.3106 29.5909 16.3798 29.5909 18.5182V35.8909C29.5909 38.0293 29.5909 39.0985 29.1748 39.9152C28.8087 40.6337 28.2246 41.2178 27.5061 41.5838C26.6894 42 25.6202 42 23.4818 42H6.10909C3.97071 42 2.90152 42 2.08476 41.5838C1.36633 41.2178 0.782219 40.6337 0.416157 39.9152C0 39.0985 0 38.0293 0 35.8909V18.5182C0 16.3798 0 15.3106 0.416157 14.4939Z" fill="#B2E7FE" fill-opacity="0.24"/>
<path d="M0.638909 14.6073C0.981002 13.936 1.52686 13.3901 2.19826 13.048C2.56552 12.8609 3.00044 12.761 3.62167 12.7103C4.24582 12.6593 5.03577 12.6591 6.10909 12.6591H23.4818C24.5551 12.6591 25.3451 12.6593 25.9692 12.7103C26.5905 12.761 27.0254 12.8609 27.3926 13.048C28.064 13.3901 28.6099 13.936 28.952 14.6073C29.1391 14.9746 29.239 15.4095 29.2897 16.0308C29.3407 16.6549 29.3409 17.4449 29.3409 18.5182V35.8909C29.3409 36.9642 29.3407 37.7542 29.2897 38.3783C29.239 38.9996 29.1391 39.4345 28.952 39.8017C28.6099 40.4731 28.064 41.019 27.3926 41.3611C27.0254 41.5482 26.5905 41.6481 25.9692 41.6988C25.3451 41.7498 24.5551 41.75 23.4818 41.75H6.10909C5.03577 41.75 4.24582 41.7498 3.62167 41.6988C3.00044 41.6481 2.56552 41.5482 2.19826 41.3611C1.52686 41.019 0.981002 40.4731 0.638909 39.8017C0.45178 39.4345 0.351946 38.9996 0.301189 38.3783C0.250194 37.7542 0.25 36.9642 0.25 35.8909V18.5182C0.25 17.4449 0.250194 16.6549 0.301189 16.0308C0.351946 15.4095 0.45178 14.9746 0.638909 14.6073Z" stroke="#87C9FE" stroke-opacity="0.25" stroke-width="0.5"/>
</g>
<path fill-rule="evenodd" clip-rule="evenodd" d="M0.954529 17.7955C0.954529 17.8907 0.954529 17.9383 0.96792 17.9766C0.991906 18.0451 1.0458 18.099 1.11435 18.123C1.15262 18.1364 1.20023 18.1364 1.29544 18.1364H28.2954C28.3907 18.1364 28.4383 18.1364 28.4765 18.123C28.5451 18.099 28.599 18.0451 28.623 17.9766C28.6363 17.9383 28.6363 17.8907 28.6363 17.7955C28.6363 16.5577 28.6363 15.9388 28.4623 15.4413C28.1504 14.5502 27.4498 13.8496 26.5587 13.5377C26.0612 13.3636 25.4423 13.3636 24.2045 13.3636H5.38635C4.14859 13.3636 3.5297 13.3636 3.03219 13.5377C2.14107 13.8496 1.44043 14.5502 1.12862 15.4413C0.954529 15.9388 0.954529 16.5577 0.954529 17.7955ZM10.5 27.2045C10.5 24.8322 12.4231 22.9091 14.7954 22.9091C17.1678 22.9091 19.0909 24.8322 19.0909 27.2045C19.0909 29.5769 17.1678 31.5 14.7954 31.5C12.4231 31.5 10.5 29.5769 10.5 27.2045ZM9.06816 35.3182C9.06816 34.791 9.49553 34.3636 10.0227 34.3636H19.5682C20.0953 34.3636 20.5227 34.791 20.5227 35.3182C20.5227 35.8454 20.0953 36.2727 19.5682 36.2727H10.0227C9.49552 36.2727 9.06816 35.8454 9.06816 35.3182Z" fill="url(#paint1_linear_83_449)"/>
<defs>
<filter id="filter0_b_83_449" x="-10" y="2.40909" width="49.5909" height="49.5909" filterUnits="userSpaceOnUse" color-interpolation-filters="sRGB">
<feFlood flood-opacity="0" result="BackgroundImageFix"/>
<feGaussianBlur in="BackgroundImage" stdDeviation="5"/>
<feComposite in2="SourceAlpha" operator="in" result="effect1_backgroundBlur_83_449"/>
<feBlend mode="normal" in="SourceGraphic" in2="effect1_backgroundBlur_83_449" result="shape"/>
</filter>
<linearGradient id="paint0_linear_83_449" x1="24.25" y1="-9" x2="-0.750027" y2="15.5" gradientUnits="userSpaceOnUse">
<stop stop-color="#57CCFF"/>
<stop offset="1" stop-color="#4791FF"/>
</linearGradient>
<linearGradient id="paint1_linear_83_449" x1="7.37497" y1="3.73827" x2="-10.4538" y2="36.8416" gradientUnits="userSpaceOnUse">
<stop stop-color="white" stop-opacity="0.88"/>
<stop offset="1" stop-color="white"/>
</linearGradient>
</defs>
</svg>
