<svg width="30" height="9" viewBox="0 0 30 9" fill="none" xmlns="http://www.w3.org/2000/svg">
<path d="M5.61475 6.55L5.88075 4.94H0.50475L1.17675 0.235999H9.10075L8.83475 2.518H6.14675L6.28675 1.58H3.72475L3.31875 3.596H8.69475L8.16275 7.222C8.16275 7.35267 8.13008 7.47867 8.06475 7.6C8.00875 7.712 7.92942 7.81 7.82675 7.894C7.72408 7.978 7.60742 8.04333 7.47675 8.09C7.35542 8.13667 7.22475 8.16 7.08475 8.16H0.09875L0.36475 6.004L0.77075 6.55H5.61475ZM15.8823 6.55L16.1483 4.94H10.7723L11.4443 0.235999H19.3683L19.1023 2.518H16.4143L16.5543 1.58H13.9923L13.5863 3.596H18.9623L18.4303 7.222C18.4303 7.35267 18.3977 7.47867 18.3323 7.6C18.2763 7.712 18.197 7.81 18.0943 7.894C17.9917 7.978 17.875 8.04333 17.7443 8.09C17.623 8.13667 17.4923 8.16 17.3523 8.16H10.3663L10.6323 6.004L11.0383 6.55H15.8823ZM29.9019 0.235999L29.3699 4.268C29.3699 4.39867 29.3372 4.52467 29.2719 4.646C29.2159 4.758 29.1366 4.856 29.0339 4.94C28.9312 5.024 28.8146 5.08933 28.6839 5.136C28.5626 5.18267 28.4319 5.206 28.2919 5.206H26.5419L29.3699 8.16H26.4159L23.7279 5.206L23.3219 8.16H20.6339L21.5719 0.768L21.1659 0.235999H29.9019ZM24.1339 1.58L23.8539 3.862H26.8219L27.0879 1.58H24.1339Z" fill="url(#paint0_linear_128_1183)"/>
<defs>
<linearGradient id="paint0_linear_128_1183" x1="31" y1="9" x2="-1" y2="-3" gradientUnits="userSpaceOnUse">
<stop stop-color="#FFA800"/>
<stop offset="1" stop-color="#FFC700"/>
</linearGradient>
</defs>
</svg>
