<svg width="16" height="16" viewBox="0 0 16 16" fill="none" xmlns="http://www.w3.org/2000/svg">
<path fill-rule="evenodd" clip-rule="evenodd" d="M8.00001 2C11.866 2 15 5.13399 15 9.00001C15 12.866 11.866 16 8.00001 16C4.13399 16 1 12.866 1 9.00001C1 5.13399 4.13399 2 8.00001 2ZM8.75317 5.11789C8.75322 4.65765 8.38016 4.28451 7.91992 4.28446C7.45969 4.28441 7.08655 4.65747 7.0865 5.11771L7.0861 8.78731C7.08608 9.00835 7.17388 9.22035 7.33018 9.37665L9.92095 11.9674C10.2464 12.2929 10.774 12.2929 11.0995 11.9674C11.4249 11.642 11.4249 11.1143 11.0995 10.7889L8.7528 8.44226L8.75317 5.11789Z" fill="white"/>
<path d="M1.33337 2.99992L3.66671 1.33325" stroke="white" stroke-width="1.66667" stroke-linecap="round" stroke-linejoin="round"/>
<path d="M14.6667 2.99992L12.3334 1.33325" stroke="white" stroke-width="1.66667" stroke-linecap="round" stroke-linejoin="round"/>
</svg>
