<svg width="20" height="21" viewBox="0 0 20 21" fill="none" xmlns="http://www.w3.org/2000/svg">
<path fill-rule="evenodd" clip-rule="evenodd" d="M8.91657 5.34459C8.96003 5.31344 9.00089 5.27879 9.03872 5.241L11.078 3.20173L19.2361 11.3599C19.987 12.1108 19.987 13.3282 19.2361 14.0791L13.7974 19.5178C13.0465 20.2688 11.8291 20.2688 11.0781 19.5178L2.24023 10.6799C-0.0125332 8.42712 -0.0125332 4.77448 2.24023 2.52173C4.26127 0.500694 7.40911 0.29285 9.66219 1.89827L7.67909 3.88139C7.6413 3.91921 7.60666 3.96005 7.5755 4.0035C6.78249 3.61983 5.85758 3.62001 5.0644 4.0035C3.63036 4.69676 3.02991 6.42148 3.72331 7.85569C4.41657 9.28973 6.14129 9.89018 7.5755 9.19678C9.00954 8.50352 9.60999 6.7788 8.91657 5.34459ZM8.36846 14.0791C8.36846 14.0729 8.37092 14.067 8.3753 14.0626L13.7808 8.657C13.783 8.65479 13.7856 8.65304 13.7884 8.65184C13.7913 8.65064 13.7943 8.65002 13.7974 8.65002C13.8005 8.65002 13.8036 8.65064 13.8064 8.65184C13.8093 8.65304 13.8118 8.65479 13.814 8.657L15.1405 9.98349C15.1448 9.98789 15.1473 9.99385 15.1473 10.0001C15.1473 10.0063 15.1448 10.0122 15.1405 10.0166L9.73493 15.4222C9.73052 15.4266 9.72457 15.429 9.71836 15.429C9.71215 15.429 9.70619 15.4266 9.70179 15.4222L8.3753 14.0957C8.37092 14.0913 8.36846 14.0853 8.36846 14.0791ZM11.7675 16.1186C11.7675 16.1124 11.77 16.1064 11.7744 16.102L15.8203 12.0561C15.8247 12.0517 15.8307 12.0493 15.8369 12.0493C15.8431 12.0493 15.849 12.0517 15.8534 12.0561L17.1799 13.3826C17.1843 13.387 17.1868 13.3929 17.1868 13.3991C17.1868 13.4054 17.1843 13.4113 17.1799 13.4157L13.134 17.4616C13.1296 17.466 13.1236 17.4685 13.1174 17.4685C13.1112 17.4685 13.1053 17.466 13.1009 17.4616L11.7744 16.1352C11.77 16.1307 11.7675 16.1248 11.7675 16.1186Z" fill="#333333"/>
</svg>
