<svg width="22" height="21" viewBox="0 0 22 21" fill="none" xmlns="http://www.w3.org/2000/svg">
<g filter="url(#filter0_dd_83_297)">
<path fill-rule="evenodd" clip-rule="evenodd" d="M15.1892 1.43393C15.7066 1.71879 16.1435 2.12995 16.4592 2.62914C16.7749 3.12832 16.9592 3.69929 16.9948 4.28886C17.0305 4.87843 16.9163 5.46743 16.663 6.001L20 6C20.2652 6 20.5196 6.10536 20.7071 6.2929C20.8946 6.48043 21 6.73479 21 7V11C21 11.2652 20.8946 11.5196 20.7071 11.7071C20.5196 11.8946 20.2652 12 20 12H19V20C19 20.2652 18.8946 20.5196 18.7071 20.7071C18.5196 20.8946 18.2652 21 18 21H4C3.73478 21 3.48043 20.8946 3.29289 20.7071C3.10536 20.5196 3 20.2652 3 20V12H2C1.73478 12 1.48043 11.8946 1.29289 11.7071C1.10536 11.5196 1 11.2652 1 11V7C1 6.73479 1.10536 6.48043 1.29289 6.2929C1.48043 6.10536 1.73478 6 2 6L5.337 6.001C4.98076 5.25268 4.90163 4.40221 5.1137 3.601C5.32577 2.7998 5.81529 2.09985 6.4951 1.62576C7.17491 1.15167 8.0009 0.934199 8.82603 1.01207C9.65116 1.08994 10.4219 1.4581 11.001 2.051C11.326 1.71753 11.7147 1.45268 12.1439 1.27215C12.5732 1.09162 13.0343 0.999076 13.5 1C14.0906 0.999802 14.6717 1.14908 15.1892 1.43393ZM7.46561 3.41441C7.18682 3.68025 7.02099 4.04315 7.00248 4.42792C6.98396 4.81269 7.11419 5.18984 7.36618 5.48121C7.61816 5.77257 7.97258 5.95583 8.356 5.993L8.5 6H10V4.5C9.99998 4.12712 9.86108 3.76761 9.61038 3.49158C9.35968 3.21556 9.01516 3.0428 8.644 3.007L8.5 3C8.11478 3.00019 7.74441 3.14858 7.46561 3.41441ZM13.356 3.007C13.0094 3.04021 12.6851 3.19298 12.4388 3.43911C12.1925 3.68525 12.0395 4.0094 12.006 4.356L12 4.5V6H13.5L13.644 5.993C14.015 5.95703 14.3594 5.7842 14.6099 5.50819C14.8605 5.23218 14.9993 4.87277 14.9993 4.5C14.9993 4.12724 14.8605 3.76783 14.6099 3.49182C14.3594 3.21581 14.015 3.04297 13.644 3.007L13.5 3L13.356 3.007Z" fill="black"/>
</g>
<defs>
<filter id="filter0_dd_83_297" x="0" y="0.996582" width="22" height="20.0034" filterUnits="userSpaceOnUse" color-interpolation-filters="sRGB">
<feFlood flood-opacity="0" result="BackgroundImageFix"/>
<feColorMatrix in="SourceAlpha" type="matrix" values="0 0 0 0 0 0 0 0 0 0 0 0 0 0 0 0 0 0 127 0" result="hardAlpha"/>
<feOffset dx="1"/>
<feComposite in2="hardAlpha" operator="out"/>
<feColorMatrix type="matrix" values="0 0 0 0 0.180392 0 0 0 0 0.909804 0 0 0 0 0.913725 0 0 0 1 0"/>
<feBlend mode="normal" in2="BackgroundImageFix" result="effect1_dropShadow_83_297"/>
<feColorMatrix in="SourceAlpha" type="matrix" values="0 0 0 0 0 0 0 0 0 0 0 0 0 0 0 0 0 0 127 0" result="hardAlpha"/>
<feOffset dx="-1"/>
<feComposite in2="hardAlpha" operator="out"/>
<feColorMatrix type="matrix" values="0 0 0 0 1 0 0 0 0 0.392157 0 0 0 0 0.466667 0 0 0 1 0"/>
<feBlend mode="normal" in2="effect1_dropShadow_83_297" result="effect2_dropShadow_83_297"/>
<feBlend mode="normal" in="SourceGraphic" in2="effect2_dropShadow_83_297" result="shape"/>
</filter>
</defs>
</svg>
