<svg width="22" height="21" viewBox="0 0 22 21" fill="none" xmlns="http://www.w3.org/2000/svg">
<path fill-rule="evenodd" clip-rule="evenodd" d="M18.7071 20.2206C18.5196 20.4082 18.2652 20.5135 18 20.5135H4C3.73478 20.5135 3.48043 20.4082 3.29289 20.2206C3.10536 20.0331 3 19.7787 3 19.5135V10.5135H0L10.327 1.12553C10.5111 0.958009 10.7511 0.865173 11 0.865173C11.2489 0.865173 11.4889 0.958009 11.673 1.12553L22 10.5135H19V19.5135C19 19.7787 18.8946 20.0331 18.7071 20.2206ZM7.81802 15.6955C8.66193 16.5394 9.80653 17.0135 11 17.0135C12.1935 17.0135 13.3381 16.5394 14.182 15.6955C15.0259 14.8516 15.5 13.707 15.5 12.5135H13.5C13.5 13.1766 13.2366 13.8125 12.7678 14.2813C12.2989 14.7501 11.663 15.0135 11 15.0135C10.337 15.0135 9.70107 14.7501 9.23223 14.2813C8.76339 13.8125 8.5 13.1766 8.5 12.5135H6.5C6.5 13.707 6.97411 14.8516 7.81802 15.6955Z" fill="black"/>
</svg>
