<svg width="20" height="9" viewBox="0 0 20 9" fill="none" xmlns="http://www.w3.org/2000/svg">
<path d="M5.74854 6.55L6.01454 4.94H0.638539L1.31054 0.235999H9.23454L8.96854 2.518H6.28054L6.42054 1.58H3.85854L3.45254 3.596H8.82854L8.29654 7.222C8.29654 7.35267 8.26387 7.47867 8.19854 7.6C8.14254 7.712 8.06321 7.81 7.96054 7.894C7.85787 7.978 7.74121 8.04333 7.61054 8.09C7.48921 8.13667 7.35854 8.16 7.21854 8.16H0.232539L0.498539 6.004L0.904539 6.55H5.74854ZM19.7681 0.235999L19.2361 4.268C19.2361 4.39867 19.2035 4.52467 19.1381 4.646C19.0821 4.758 19.0028 4.856 18.9001 4.94C18.7975 5.024 18.6808 5.08933 18.5501 5.136C18.4288 5.18267 18.2981 5.206 18.1581 5.206H16.4081L19.2361 8.16H16.2821L13.5941 5.206L13.1881 8.16H10.5001L11.4381 0.768L11.0321 0.235999H19.7681ZM14.0001 1.58L13.7201 3.862H16.6881L16.9541 1.58H14.0001Z" fill="url(#paint0_linear_128_1189)"/>
<defs>
<linearGradient id="paint0_linear_128_1189" x1="26" y1="9" x2="-6" y2="-3" gradientUnits="userSpaceOnUse">
<stop stop-color="#00CACE"/>
<stop offset="1" stop-color="#51FCFF"/>
</linearGradient>
</defs>
</svg>
