<svg width="25" height="24" viewBox="0 0 25 24" fill="none" xmlns="http://www.w3.org/2000/svg">
<path d="M12.5 0L14.8915 3.07485L18.5 1.6077L19.0337 5.46633L22.8923 6L21.4252 9.60851L24.5 12L21.4252 14.3915L22.8923 18L19.0337 18.5337L18.5 22.3923L14.8915 20.9252L12.5 24L10.1085 20.9252L6.5 22.3923L5.96633 18.5337L2.1077 18L3.57485 14.3915L0.5 12L3.57485 9.60851L2.1077 6L5.96633 5.46633L6.5 1.6077L10.1085 3.07485L12.5 0Z" fill="white"/>
<path d="M9 13L11.1667 15.5L16.5 10" fill="white"/>
<path d="M9 13L11.1667 15.5L16.5 10" stroke="#13E9EF" stroke-width="2" stroke-linecap="square" stroke-linejoin="round"/>
</svg>
