<svg width="20" height="21" viewBox="0 0 20 21" fill="none" xmlns="http://www.w3.org/2000/svg">
<path fill-rule="evenodd" clip-rule="evenodd" d="M14.1892 1.43393C14.7066 1.71879 15.1435 2.12995 15.4592 2.62914C15.7749 3.12832 15.9592 3.69929 15.9948 4.28886C16.0305 4.87843 15.9163 5.46743 15.663 6.001L19 6C19.2652 6 19.5196 6.10536 19.7071 6.2929C19.8946 6.48043 20 6.73479 20 7V11C20 11.2652 19.8946 11.5196 19.7071 11.7071C19.5196 11.8946 19.2652 12 19 12H18V20C18 20.2652 17.8946 20.5196 17.7071 20.7071C17.5196 20.8946 17.2652 21 17 21H3C2.73478 21 2.48043 20.8946 2.29289 20.7071C2.10536 20.5196 2 20.2652 2 20V12H1C0.734784 12 0.48043 11.8946 0.292893 11.7071C0.105357 11.5196 0 11.2652 0 11V7C0 6.73479 0.105357 6.48043 0.292893 6.2929C0.48043 6.10536 0.734784 6 1 6L4.337 6.001C3.98076 5.25268 3.90163 4.40221 4.1137 3.601C4.32577 2.7998 4.81529 2.09985 5.4951 1.62576C6.17491 1.15167 7.0009 0.934199 7.82603 1.01207C8.65116 1.08994 9.42189 1.4581 10.001 2.051C10.326 1.71753 10.7147 1.45268 11.1439 1.27215C11.5732 1.09162 12.0343 0.999076 12.5 1C13.0906 0.999802 13.6717 1.14908 14.1892 1.43393ZM4 12V19H16V12H4ZM2 8V10H18V8H2ZM6.46561 3.41441C6.18682 3.68025 6.02099 4.04315 6.00248 4.42792C5.98396 4.81269 6.11419 5.18984 6.36618 5.48121C6.61816 5.77257 6.97258 5.95583 7.356 5.993L7.5 6H9V4.5C8.99998 4.12712 8.86108 3.76761 8.61038 3.49158C8.35968 3.21556 8.01516 3.0428 7.644 3.007L7.5 3C7.11478 3.00019 6.74441 3.14858 6.46561 3.41441ZM12.356 3.007C12.0094 3.04021 11.6851 3.19298 11.4388 3.43911C11.1925 3.68525 11.0395 4.0094 11.006 4.356L11 4.5V6H12.5L12.644 5.993C13.015 5.95703 13.3594 5.7842 13.6099 5.50819C13.8605 5.23218 13.9993 4.87277 13.9993 4.5C13.9993 4.12724 13.8605 3.76783 13.6099 3.49182C13.3594 3.21581 13.015 3.04297 12.644 3.007L12.5 3L12.356 3.007Z" fill="black"/>
</svg>
