<svg width="18" height="20" viewBox="0 0 18 20" fill="none" xmlns="http://www.w3.org/2000/svg">
<path fill-rule="evenodd" clip-rule="evenodd" d="M1 20C0.734784 20 0.48043 19.8946 0.292893 19.7071C0.105357 19.5196 0 19.2652 0 19V1C0 0.734784 0.105357 0.48043 0.292893 0.292893C0.48043 0.105357 0.734784 0 1 0H17C17.2652 0 17.5196 0.105357 17.7071 0.292893C17.8946 0.48043 18 0.734784 18 1V19C18 19.2652 17.8946 19.5196 17.7071 19.7071C17.5196 19.8946 17.2652 20 17 20H1ZM16 2H2V18H16V2ZM6 6C6 6.79565 6.31607 7.55871 6.87868 8.12132C7.44129 8.68393 8.20435 9 9 9C9.79565 9 10.5587 8.68393 11.1213 8.12132C11.6839 7.55871 12 6.79565 12 6V4H14V6C14 7.32608 13.4732 8.59785 12.5355 9.53553C11.5979 10.4732 10.3261 11 9 11C7.67392 11 6.40215 10.4732 5.46447 9.53553C4.52678 8.59785 4 7.32608 4 6V4H6V6Z" fill="black"/>
</svg>
