<svg width="43" height="43" viewBox="0 0 43 43" fill="none" xmlns="http://www.w3.org/2000/svg">
<path d="M19.4565 2.03033C20.5192 0.982133 21.891 0.292682 23.3753 0.0607882C25.0627 -0.20284 26.958 0.404577 30.7484 1.61941L34.0479 2.67687C37.8383 3.8917 39.7336 4.49912 40.9417 5.69075C42.0043 6.73895 42.7033 8.09207 42.9384 9.55619C43.2056 11.2207 42.5898 13.0901 41.3582 16.829L39.599 22.1697C38.3674 25.9086 37.7516 27.778 36.5435 28.9697C35.4808 30.0179 34.109 30.7073 32.6247 30.9392C30.9373 31.2028 29.042 30.5954 25.2516 29.3806L21.9521 28.3231C18.1617 27.1083 16.2664 26.5009 15.0583 25.3092C13.9957 24.2611 13.2967 22.9079 13.0616 21.4438C12.7944 19.7793 13.4102 17.9099 14.6418 14.171L16.401 8.83027C17.6326 5.0914 18.2484 3.22197 19.4565 2.03033Z" fill="url(#paint0_linear_83_450)"/>
<g filter="url(#filter0_b_83_450)">
<path d="M1.83231 13.715C2.56444 12.2781 3.73265 11.1099 5.16953 10.3778C6.80303 9.54544 8.94142 9.54544 13.2182 9.54544H18.3727C22.6495 9.54544 24.7879 9.54544 26.4214 10.3778C27.8583 11.1099 29.0265 12.2781 29.7586 13.715C30.5909 15.3485 30.5909 17.4869 30.5909 21.7636V29.7818C30.5909 34.0586 30.5909 36.1969 29.7586 37.8305C29.0265 39.2673 27.8583 40.4355 26.4214 41.1677C24.7879 42 22.6495 42 18.3727 42H13.2182C8.94142 42 6.80303 42 5.16953 41.1677C3.73265 40.4355 2.56444 39.2673 1.83231 37.8305C1 36.1969 1 34.0586 1 29.7818V21.7636C1 17.4869 1 15.3485 1.83231 13.715Z" fill="#FF9D8F" fill-opacity="0.24"/>
<path d="M2.05507 13.8285C2.76322 12.4386 3.89319 11.3087 5.28302 10.6005C6.05866 10.2053 6.96507 10.0014 8.22299 9.89865C9.48383 9.79564 11.0757 9.79544 13.2182 9.79544H18.3727C20.5152 9.79544 22.1071 9.79564 23.3679 9.89865C24.6258 10.0014 25.5322 10.2053 26.3079 10.6005C27.6977 11.3087 28.8277 12.4386 29.5358 13.8285C29.9311 14.6041 30.1349 15.5105 30.2377 16.7684C30.3407 18.0293 30.3409 19.6211 30.3409 21.7636V29.7818C30.3409 31.9243 30.3407 33.5162 30.2377 34.777C30.1349 36.0349 29.9311 36.9413 29.5358 37.717C28.8277 39.1068 27.6977 40.2368 26.3079 40.9449C25.5322 41.3401 24.6258 41.544 23.3679 41.6468C22.1071 41.7498 20.5152 41.75 18.3727 41.75H13.2182C11.0757 41.75 9.48383 41.7498 8.22299 41.6468C6.96507 41.544 6.05866 41.3401 5.28302 40.9449C3.89319 40.2368 2.76322 39.1068 2.05507 37.717C1.65986 36.9413 1.45599 36.0349 1.35321 34.777C1.25019 33.5162 1.25 31.9243 1.25 29.7818V21.7636C1.25 19.6211 1.25019 18.0293 1.35321 16.7684C1.45599 15.5105 1.65986 14.6041 2.05507 13.8285Z" stroke="#FFBAAA" stroke-opacity="0.25" stroke-width="0.5" stroke-linecap="round" stroke-linejoin="round"/>
</g>
<path fill-rule="evenodd" clip-rule="evenodd" d="M8.63637 16.2273C8.10919 16.2273 7.68182 16.6546 7.68182 17.1818C7.68182 17.709 8.10919 18.1364 8.63637 18.1364H22.9546C23.4817 18.1364 23.9091 17.709 23.9091 17.1818C23.9091 16.6546 23.4817 16.2273 22.9546 16.2273H8.63637ZM7.68182 21.9545C7.68182 21.4274 8.10919 21 8.63637 21H22.9546C23.4817 21 23.9091 21.4274 23.9091 21.9545C23.9091 22.4817 23.4817 22.9091 22.9546 22.9091H8.63637C8.10919 22.9091 7.68182 22.4817 7.68182 21.9545ZM7.68182 26.7273C7.68182 26.2001 8.10919 25.7727 8.63637 25.7727H13.4091C13.9363 25.7727 14.3636 26.2001 14.3636 26.7273C14.3636 27.2544 13.9363 27.6818 13.4091 27.6818H8.63637C8.10919 27.6818 7.68182 27.2544 7.68182 26.7273Z" fill="url(#paint1_linear_83_450)"/>
<defs>
<filter id="filter0_b_83_450" x="-9" y="-0.454559" width="49.5909" height="52.4546" filterUnits="userSpaceOnUse" color-interpolation-filters="sRGB">
<feFlood flood-opacity="0" result="BackgroundImageFix"/>
<feGaussianBlur in="BackgroundImage" stdDeviation="5"/>
<feComposite in2="SourceAlpha" operator="in" result="effect1_backgroundBlur_83_450"/>
<feBlend mode="normal" in="SourceGraphic" in2="effect1_backgroundBlur_83_450" result="shape"/>
</filter>
<linearGradient id="paint0_linear_83_450" x1="25.3047" y1="-11.2617" x2="2.45635" y2="24.6394" gradientUnits="userSpaceOnUse">
<stop stop-color="#FF9D8F"/>
<stop offset="0.0666667" stop-color="#FF9C8F"/>
<stop offset="0.133333" stop-color="#FF9B8C"/>
<stop offset="0.2" stop-color="#FE9887"/>
<stop offset="0.266667" stop-color="#FD9381"/>
<stop offset="0.333333" stop-color="#FC8E78"/>
<stop offset="0.4" stop-color="#FB876F"/>
<stop offset="0.466667" stop-color="#F98064"/>
<stop offset="0.533333" stop-color="#F87958"/>
<stop offset="0.6" stop-color="#F6714D"/>
<stop offset="0.666667" stop-color="#F56B43"/>
<stop offset="0.733333" stop-color="#F4653B"/>
<stop offset="0.8" stop-color="#F36134"/>
<stop offset="0.866667" stop-color="#F35E30"/>
<stop offset="0.933333" stop-color="#F25C2D"/>
<stop offset="1" stop-color="#F25C2C"/>
</linearGradient>
<linearGradient id="paint1_linear_83_450" x1="-1.30433" y1="18.0012" x2="-5.18788" y2="46.2605" gradientUnits="userSpaceOnUse">
<stop stop-color="white" stop-opacity="0.88"/>
<stop offset="1" stop-color="white" stop-opacity="0.01"/>
</linearGradient>
</defs>
</svg>
