<svg width="42" height="42" viewBox="0 0 42 42" fill="none" xmlns="http://www.w3.org/2000/svg">
<g clip-path="url(#clip0_83_451)">
<circle cx="26.7273" cy="15.2727" r="15.2727" fill="url(#paint0_linear_83_451)"/>
<g filter="url(#filter0_b_83_451)">
<path fill-rule="evenodd" clip-rule="evenodd" d="M28.6364 19.282C28.6364 18.1215 28.0252 17.0502 27.0323 16.4708L15.9223 9.98002C14.9293 9.40058 13.707 9.40058 12.7141 9.98002L1.6041 16.4708C0.611161 17.0502 0 18.1231 0 19.282V32.2618C0 33.4223 0.611161 34.4936 1.6041 35.073L12.7141 41.5654C13.707 42.1448 14.9293 42.1448 15.9223 41.5654L27.0323 35.0747C28.0252 34.4952 28.6364 33.4223 28.6364 32.2635V19.282Z" fill="#14EAF0" fill-opacity="0.24"/>
<path d="M26.9062 16.6866L26.9063 16.6867C27.8215 17.2208 28.3864 18.2093 28.3864 19.282V32.2635C28.3864 33.3346 27.8214 34.3247 26.9063 34.8587L26.9062 34.8588L15.7963 41.3495C14.8812 41.8835 13.7552 41.8835 12.8401 41.3495L1.73023 34.8572L1.7301 34.8571C0.814865 34.323 0.25 33.3345 0.25 32.2618V19.282C0.25 18.2108 0.814925 17.2208 1.7301 16.6867L1.73021 16.6866L12.8401 10.1959C12.8401 10.1959 12.8402 10.1959 12.8402 10.1959C13.7552 9.66196 14.8811 9.66196 15.7962 10.1959C15.7962 10.1959 15.7962 10.1959 15.7963 10.1959L26.9062 16.6866Z" stroke="url(#paint1_linear_83_451)" stroke-width="0.5" stroke-linecap="round" stroke-linejoin="round"/>
</g>
<path fill-rule="evenodd" clip-rule="evenodd" d="M25.3047 20.7998C25.7872 20.5311 25.9605 19.9222 25.6919 19.4396C25.4232 18.9571 24.8142 18.7837 24.3317 19.0524L14.3238 24.625L4.55186 19.0573C4.072 18.7838 3.46136 18.9512 3.18795 19.4311C2.91454 19.9109 3.0819 20.5216 3.56176 20.795L13.3182 26.3539V37.7045C13.3182 38.2568 13.7659 38.7045 14.3182 38.7045C14.8705 38.7045 15.3182 38.2568 15.3182 37.7045V26.3605L25.3047 20.7998Z" fill="url(#paint2_linear_83_451)"/>
</g>
<defs>
<filter id="filter0_b_83_451" x="-10" y="-0.454559" width="48.6364" height="52.4546" filterUnits="userSpaceOnUse" color-interpolation-filters="sRGB">
<feFlood flood-opacity="0" result="BackgroundImageFix"/>
<feGaussianBlur in="BackgroundImage" stdDeviation="5"/>
<feComposite in2="SourceAlpha" operator="in" result="effect1_backgroundBlur_83_451"/>
<feBlend mode="normal" in="SourceGraphic" in2="effect1_backgroundBlur_83_451" result="shape"/>
</filter>
<linearGradient id="paint0_linear_83_451" x1="17.8978" y1="5.15923" x2="2.44351" y2="32.3638" gradientUnits="userSpaceOnUse">
<stop stop-color="#13E9EF"/>
<stop offset="1" stop-color="#00CACE"/>
</linearGradient>
<linearGradient id="paint1_linear_83_451" x1="16.4238" y1="51.0682" x2="40.7482" y2="28.3429" gradientUnits="userSpaceOnUse">
<stop stop-color="white" stop-opacity="0.01"/>
<stop offset="1" stop-color="white" stop-opacity="0.16"/>
</linearGradient>
<linearGradient id="paint2_linear_83_451" x1="-4.41204" y1="20.9347" x2="-11.7439" y2="59.6854" gradientUnits="userSpaceOnUse">
<stop stop-color="white" stop-opacity="0.88"/>
<stop offset="1" stop-color="white" stop-opacity="0.01"/>
</linearGradient>
<clipPath id="clip0_83_451">
<rect width="42" height="42" fill="white"/>
</clipPath>
</defs>
</svg>
