<svg width="24" height="24" viewBox="0 0 24 24" fill="none" xmlns="http://www.w3.org/2000/svg">
<path d="M0 12C0 5.37258 5.37258 0 12 0C18.6274 0 24 5.37258 24 12C24 18.6274 18.6274 24 12 24C5.37258 24 0 18.6274 0 12Z" fill="white"/>
<path d="M16.7692 10H11.2308C10.551 10 10 10.551 10 11.2308V16.7692C10 17.449 10.551 18 11.2308 18H16.7692C17.449 18 18 17.449 18 16.7692V11.2308C18 10.551 17.449 10 16.7692 10Z" stroke="#AAAAAA" stroke-width="2" stroke-linecap="round" stroke-linejoin="round"/>
<path d="M7.61538 13H7.07692C6.79131 13 6.51739 12.8865 6.31542 12.6846C6.11346 12.4826 6 12.2087 6 11.9231V7.07692C6 6.79131 6.11346 6.51739 6.31542 6.31542C6.51739 6.11346 6.79131 6 7.07692 6H11.9231C12.2087 6 12.4826 6.11346 12.6846 6.31542C12.8865 6.51739 13 6.79131 13 7.07692V7.61538" stroke="#AAAAAA" stroke-width="2" stroke-linecap="round" stroke-linejoin="round"/>
</svg>
